# xmcd
#
# Track frame offsets:
#	150
#	19352
#	34234
#	49994
#	62033
#	71587
#	83386
#	98560
#	110576
#	122317
#	133097
#	150475
#	166269
#	177112
#	194269
#	204690
#
# Disc length: 2942 seconds
#
# Revision: 3
# Processed by: cddbd v1.5.2PL0 Copyright (c) Steve Scherf et al.
# Submitted via: audiograbber 1.83.01
#
DISCID=d20b7c10
DTITLE=Various Artist - The Greatest Country Album [Disc 2]
DYEAR=2004
DGENRE=Country
TTITLE0=Bobbie Gentry - Ode To Billie Jo
TTITLE1=Slim Whitman - Indian Love Call
TTITLE2=Billie Jo Spears - Sing Me An Old Fashioned Song
TTITLE3=Wanda Jackson - Stand By Your Man
TTITLE4=George Jones (with The Jones Boys) - The Race Is On
TTITLE5=Tennessee Ernie Ford - Sixteen Tons
TTITLE6=Don Williams - Send Her Roses
TTITLE7=Glen Campbell - Galveston
TTITLE8=Lacy J Dalton - Love Hurts
TTITLE9=Faron Young - Hello Walls
TTITLE10=Kenny Rogers and Sheena Easton - We've Got Tonight
TTITLE11=Suzy Bogguss - Moment Of Truth
TTITLE12=Crystal Gayle - Somebody Loves You
TTITLE13=Tanya Tucker - Love Me Like You Used To
TTITLE14=Ferlin Husky - Wings Of A Dove
TTITLE15=Joe South - Games People Play
EXTD=YEAR: 2004
EXTT0=
EXTT1=
EXTT2=
EXTT3=
EXTT4=
EXTT5=
EXTT6=
EXTT7=
EXTT8=
EXTT9=
EXTT10=
EXTT11=
EXTT12=
EXTT13=
EXTT14=
EXTT15=
PLAYORDER=
